<svg xmlns="http://www.w3.org/2000/svg" xmlns:xlink="http://www.w3.org/1999/xlink" viewBox="0 0 280 250" preserveAspectRatio="xMidYMid" style="display: block; shape-rendering: auto; background: rgb(255, 255, 255);" width="280" height="250"><style type="text/css">
  .ld-text text {
    text-anchor: middle;
    dominant-baseline: middle;
    font-size: 50px;
    opacity: 0;
    user-select: none;
    pointer-events: none;
  }
</style>
<g style="transform-origin:140px 125px;transform:scale(1)" class="ld-text">
<g transform="translate(140,125)">
  <g transform="scale(0.6250) translate(0,0)"><g class="path" style="opacity: 1; transform-origin: -155.48px -8.02px; transform: matrix3d(0.91, 0, 0, 0, 0, 0.91, 0, 0, 0, 0, 0.91, 0, 0, 0, 0, 1); animation: 0.507614s linear -0.304569s infinite normal forwards running animate-x7yk7l7rpwd; transform-box: view-box;"><path d="M40.48 39.96L7.20 39.96L7.20-16.04L14.80-16.04L14.80 33.16L40.48 33.16L40.48 39.96" style="fill: rgb(255, 191, 0);" transform="translate(-179.320,-19.978)"></path></g><g class="path" style="opacity: 1; transform-origin: -114.52px -0.82px; transform: matrix3d(0.91, 0, 0, 0, 0, 0.91, 0, 0, 0, 0, 0.91, 0, 0, 0, 0, 1); animation: 0.507614s linear -0.274112s infinite normal forwards running animate-x7yk7l7rpwd; transform-box: view-box;"><path d="M64.80 40.92L64.80 40.92Q58.88 40.92 54.16 38.16Q49.44 35.40 46.76 30.48Q44.08 25.56 44.08 19.16L44.08 19.16Q44.08 12.44 46.80 7.56Q49.52 2.68 54.24 0.04Q58.96-2.60 64.80-2.60L64.80-2.60Q70.64-2.60 75.32 0.04Q80 2.68 82.76 7.52Q85.52 12.36 85.52 19L85.52 19Q85.52 25.64 82.80 30.56Q80.08 35.48 75.40 38.20Q70.72 40.92 64.80 40.92 zM64.80 34.52L64.80 34.52Q71.12 34.52 74.64 30.24Q78.16 25.96 78.16 19.16L78.16 19.16Q78.16 15 76.40 11.52Q74.64 8.04 71.64 5.92Q68.64 3.80 64.80 3.80L64.80 3.80Q58.48 3.80 54.96 7.96Q51.44 12.12 51.44 19L51.44 19Q51.44 23.16 53.20 26.72Q54.96 30.28 57.96 32.40Q60.96 34.52 64.80 34.52" style="fill: rgb(255, 191, 0);" transform="translate(-179.320,-19.978)"></path></g><g class="path" style="opacity: 1; transform-origin: -65.72px -0.82px; transform: matrix3d(0.91, 0, 0, 0, 0, 0.91, 0, 0, 0, 0, 0.91, 0, 0, 0, 0, 1); animation: 0.507614s linear -0.243655s infinite normal forwards running animate-x7yk7l7rpwd; transform-box: view-box;"><path d="M111.04 40.92L111.04 40.92Q105.84 40.92 101.60 38.28Q97.36 35.64 94.84 30.80Q92.32 25.96 92.32 19.40L92.32 19.40Q92.32 13.16 94.84 8.20Q97.36 3.24 101.80 0.32Q106.24-2.60 112-2.60L112-2.60Q115.60-2.60 118.52-1.36Q121.44-0.12 123.60 1.72L123.60 1.72L123.60-1.64L130.16-1.64L130.16 29.88Q130.16 32.92 131.64 33.84Q133.12 34.76 134.88 34.76L134.88 34.76L133.36 40.36Q125.68 40.36 124.08 34.12L124.08 34.12Q122.24 36.68 119.08 38.80Q115.92 40.92 111.04 40.92 zM112.64 34.52L112.64 34.52Q115.68 34.52 118.40 33.04Q121.12 31.56 122.96 29.32L122.96 29.32L122.96 7Q120.80 5.48 118.20 4.56Q115.60 3.64 112.72 3.64L112.72 3.64Q108.88 3.64 105.96 5.60Q103.04 7.56 101.36 11.04Q99.68 14.52 99.68 19.16L99.68 19.16Q99.68 23.64 101.36 27.12Q103.04 30.60 106 32.56Q108.96 34.52 112.64 34.52" style="fill: rgb(255, 191, 0);" transform="translate(-179.320,-19.978)"></path></g><g class="path" style="opacity: 1; transform-origin: -17.32px -9.14px; transform: matrix3d(0.91, 0, 0, 0, 0, 0.91, 0, 0, 0, 0, 0.91, 0, 0, 0, 0, 1); animation: 0.507614s linear -0.213198s infinite normal forwards running animate-x7yk7l7rpwd; transform-box: view-box;"><path d="M159.44 40.92L159.44 40.92Q154.32 40.92 150.08 38.28Q145.84 35.64 143.36 30.80Q140.88 25.96 140.88 19.40L140.88 19.40Q140.88 13.08 143.40 8.12Q145.92 3.16 150.12 0.28Q154.32-2.60 159.36-2.60L159.36-2.60Q163.52-2.60 166.52-0.92Q169.52 0.76 171.20 2.52L171.20 2.52L171.20-19.24L178.40-19.24L178.40 29.88Q178.40 32.92 179.88 33.84Q181.36 34.76 183.12 34.76L183.12 34.76L181.60 40.36Q174 40.36 172.32 34.28L172.32 34.28Q170.56 36.76 167.40 38.84Q164.24 40.92 159.44 40.92 zM161.04 34.52L161.04 34.52Q164 34.52 166.68 33.12Q169.36 31.72 171.20 29.48L171.20 29.48L171.20 8.84Q169.68 6.92 166.96 5.28Q164.24 3.64 160.96 3.64L160.96 3.64Q157.12 3.64 154.24 5.72Q151.36 7.80 149.80 11.28Q148.24 14.76 148.24 19.16L148.24 19.16Q148.24 23.56 149.92 27.04Q151.60 30.52 154.52 32.52Q157.44 34.52 161.04 34.52" style="fill: rgb(255, 191, 0);" transform="translate(-179.320,-19.978)"></path></g><g class="path" style="opacity: 1; transform-origin: 17px -0.82px; transform: matrix3d(0.91, 0, 0, 0, 0, 0.91, 0, 0, 0, 0, 0.91, 0, 0, 0, 0, 1); animation: 0.507614s linear -0.182741s infinite normal forwards running animate-x7yk7l7rpwd; transform-box: view-box;"><path d="M199.92 39.96L192.72 39.96L192.72-1.64L199.92-1.64L199.92 39.96" style="fill: rgb(255, 191, 0);" transform="translate(-179.320,-19.978)"></path></g><g class="path" style="opacity: 1; transform-origin: 17px -33.78px; transform: matrix3d(0.91, 0, 0, 0, 0, 0.91, 0, 0, 0, 0, 0.91, 0, 0, 0, 0, 1); animation: 0.507614s linear -0.152284s infinite normal forwards running animate-x7yk7l7rpwd; transform-box: view-box;"><path d="M196.32-8.76L196.32-8.76Q194.24-8.76 192.76-10.28Q191.28-11.80 191.28-13.80L191.28-13.80Q191.28-16.12 192.64-17.48Q194-18.84 196.32-18.84L196.32-18.84Q198.40-18.84 199.88-17.36Q201.36-15.88 201.36-13.80L201.36-13.80Q201.36-11.56 200-10.16Q198.64-8.76 196.32-8.76" style="fill: rgb(255, 191, 0);" transform="translate(-179.320,-19.978)"></path></g><g class="path" style="opacity: 1; transform-origin: 50.88px -1.3px; transform: matrix3d(0.91, 0, 0, 0, 0, 0.91, 0, 0, 0, 0, 0.91, 0, 0, 0, 0, 1); animation: 0.507614s linear -0.121827s infinite normal forwards running animate-x7yk7l7rpwd; transform-box: view-box;"><path d="M219.92 39.96L212.72 39.96L212.72-1.64L219.68-1.64L219.68 5.32Q221.92 1.96 225.40-0.32Q228.88-2.60 233.68-2.60L233.68-2.60Q240.72-2.60 244.20 1.64Q247.68 5.88 247.68 12.84L247.68 12.84L247.68 39.96L240.48 39.96L240.48 13.64Q240.48 9.16 238.36 6.44Q236.24 3.72 232.48 3.72L232.48 3.72Q228.80 3.72 225.52 6.32Q222.24 8.92 219.92 12.44L219.92 12.44L219.92 39.96" style="fill: rgb(255, 191, 0);" transform="translate(-179.320,-19.978)"></path></g><g class="path" style="opacity: 1; transform-origin: 96.56px 7.98px; transform: matrix3d(0.91, 0, 0, 0, 0, 0.91, 0, 0, 0, 0, 0.91, 0, 0, 0, 0, 1); animation: 0.507614s linear -0.0913706s infinite normal forwards running animate-x7yk7l7rpwd; transform-box: view-box;"><path d="M275.36 58.52L275.36 58.52Q271.68 58.52 268.20 57.64Q264.72 56.76 262 55L262 55L264.64 48.76Q266.56 50.28 269.12 51.28Q271.68 52.28 275.36 52.28L275.36 52.28Q281.04 52.28 284.28 49.28Q287.52 46.28 287.52 39.72L287.52 39.72L287.52 34.60Q285.92 36.52 282.92 38.24Q279.92 39.96 275.76 39.96L275.76 39.96Q271.04 39.96 266.80 37.52Q262.56 35.08 259.92 30.36Q257.28 25.64 257.28 19L257.28 19Q257.28 12.76 259.88 7.88Q262.48 3 266.88 0.20Q271.28-2.60 276.56-2.60L276.56-2.60Q280.08-2.60 282.96-1.40Q285.84-0.20 287.92 1.56L287.92 1.56L287.92-1.64L294.48-1.64L294.48 39Q294.48 45.88 292.08 50.20Q289.68 54.52 285.40 56.52Q281.12 58.52 275.36 58.52 zM277.36 33.56L277.36 33.56Q280.56 33.56 283.12 32.12Q285.68 30.68 287.28 28.76L287.28 28.76L287.28 7Q285.52 5.72 283.04 4.68Q280.56 3.64 277.28 3.64L277.28 3.64Q274 3.64 271.12 5.40Q268.24 7.16 266.44 10.48Q264.64 13.80 264.64 18.60L264.64 18.60Q264.64 23.16 266.44 26.52Q268.24 29.88 271.12 31.72Q274 33.56 277.36 33.56" style="fill: rgb(255, 191, 0);" transform="translate(-179.320,-19.978)"></path></g><g class="path" style="opacity: 1; transform-origin: 133.16px 15.58px; transform: matrix3d(0.91, 0, 0, 0, 0, 0.91, 0, 0, 0, 0, 0.91, 0, 0, 0, 0, 1); animation: 0.507614s linear -0.0609137s infinite normal forwards running animate-x7yk7l7rpwd; transform-box: view-box;"><path d="M312.48 40.92L312.48 40.92Q310.32 40.92 308.72 39.32Q307.12 37.72 307.12 35.56L307.12 35.56Q307.12 33.08 308.56 31.64Q310 30.20 312.48 30.20L312.48 30.20Q314.56 30.20 316.20 31.80Q317.84 33.40 317.84 35.56L317.84 35.56Q317.84 37.96 316.32 39.44Q314.80 40.92 312.48 40.92" style="fill: rgb(255, 191, 0);" transform="translate(-179.320,-19.978)"></path></g><g class="path" style="opacity: 1; transform-origin: 157.16px 15.58px; transform: matrix3d(0.91, 0, 0, 0, 0, 0.91, 0, 0, 0, 0, 0.91, 0, 0, 0, 0, 1); animation: 0.507614s linear -0.0304569s infinite normal forwards running animate-x7yk7l7rpwd; transform-box: view-box;"><path d="M336.48 40.92L336.48 40.92Q334.32 40.92 332.72 39.32Q331.12 37.72 331.12 35.56L331.12 35.56Q331.12 33.08 332.56 31.64Q334 30.20 336.48 30.20L336.48 30.20Q338.56 30.20 340.20 31.80Q341.84 33.40 341.84 35.56L341.84 35.56Q341.84 37.96 340.32 39.44Q338.80 40.92 336.48 40.92" style="fill: rgb(255, 191, 0);" transform="translate(-179.320,-19.978)"></path></g><g class="path" style="opacity: 1; transform-origin: 181.16px 15.58px; transform: matrix3d(0.91, 0, 0, 0, 0, 0.91, 0, 0, 0, 0, 0.91, 0, 0, 0, 0, 1); animation: 0.507614s linear 0s infinite normal forwards running animate-x7yk7l7rpwd; transform-box: view-box;"><path d="M360.48 40.92L360.48 40.92Q358.32 40.92 356.72 39.32Q355.12 37.72 355.12 35.56L355.12 35.56Q355.12 33.08 356.56 31.64Q358 30.20 360.48 30.20L360.48 30.20Q362.56 30.20 364.20 31.80Q365.84 33.40 365.84 35.56L365.84 35.56Q365.84 37.96 364.32 39.44Q362.80 40.92 360.48 40.92" style="fill: rgb(255, 191, 0);" transform="translate(-179.320,-19.978)"></path></g></g><text dy="0.35em" fill="#ffbf00" font-family="ABeeZee" font-size="50">Loading...</text>
</g>
</g><style type="text/css">@keyframes animate-x7yk7l7rpwd { 0.00% {transform: translate(0.00px,0.00px) rotate(0.00deg) scale(0.91, 0.91) skew(0deg, 0.00deg) ;opacity: 1.00;}4.00% {transform: translate(0.00px,0.00px) rotate(0.00deg) scale(0.91, 0.91) ;}8.00% {animation-timing-function: cubic-bezier(0.69,0.60,0.35,0.27);transform: translate(0.00px,0.00px) rotate(0.00deg) scale(0.91, 0.91) ;}14.00% {transform: translate(0.00px,0.00px) rotate(0.00deg) scale(0.93, 0.93) ;}18.00% {transform: translate(0.00px,0.00px) rotate(0.00deg) scale(0.94, 0.94) ;}22.00% {animation-timing-function: cubic-bezier(0.67,0.66,0.34,0.33);transform: translate(0.00px,0.00px) rotate(0.00deg) scale(0.96, 0.96) ;}26.00% {transform: translate(0.00px,0.00px) rotate(0.00deg) scale(0.97, 0.97) ;}30.00% {transform: translate(0.00px,0.00px) rotate(0.00deg) scale(0.99, 0.99) ;}34.00% {animation-timing-function: cubic-bezier(0.65,0.71,0.32,0.38);transform: translate(0.00px,0.00px) rotate(0.00deg) scale(1.01, 1.01) ;}40.00% {animation-timing-function: cubic-bezier(0.64,0.74,0.31,0.41);transform: translate(0.00px,0.00px) rotate(0.00deg) scale(1.02, 1.02) ;}46.00% {animation-timing-function: cubic-bezier(0.60,0.91,0.23,0.63);transform: translate(0.00px,0.00px) rotate(0.00deg) scale(1.03, 1.03) ;}50.00% {transform: translate(0.00px,0.00px) rotate(0.00deg) scale(1.03, 1.03) ;}54.00% {transform: translate(0.00px,0.00px) rotate(0.00deg) scale(1.03, 1.03) ;}58.00% {animation-timing-function: cubic-bezier(0.69,0.60,0.35,0.27);transform: translate(0.00px,0.00px) rotate(0.00deg) scale(1.03, 1.03) ;}64.00% {transform: translate(0.00px,0.00px) rotate(0.00deg) scale(1.01, 1.01) ;}68.00% {transform: translate(0.00px,0.00px) rotate(0.00deg) scale(1.00, 1.00) ;}72.00% {animation-timing-function: cubic-bezier(0.67,0.66,0.34,0.33);transform: translate(0.00px,0.00px) rotate(0.00deg) scale(0.98, 0.98) ;}76.00% {animation-timing-function: cubic-bezier(0.66,0.68,0.33,0.35);transform: translate(0.00px,0.00px) rotate(0.00deg) scale(0.97, 0.97) ;}82.00% {animation-timing-function: cubic-bezier(0.65,0.71,0.32,0.38);transform: translate(0.00px,0.00px) rotate(0.00deg) scale(0.94, 0.94) ;}88.00% {animation-timing-function: cubic-bezier(0.65,0.73,0.31,0.40);transform: translate(0.00px,0.00px) rotate(0.00deg) scale(0.92, 0.92) ;}94.00% {animation-timing-function: cubic-bezier(0.63,0.80,0.28,0.48);transform: translate(0.00px,0.00px) rotate(0.00deg) scale(0.91, 0.91) ;}100.00% {animation-timing-function: cubic-bezier(0.63,0.80,0.28,0.48);transform: translate(0.00px,0.00px) rotate(0.00deg) scale(0.91, 0.91) ;} }</style><!-- [ldio] generated by https://loading.io --></svg>